<?xml version="1.0" standalone="no"?>
<!DOCTYPE svg PUBLIC "-//W3C//DTD SVG 20010904//EN"
 "http://www.w3.org/TR/2001/REC-SVG-20010904/DTD/svg10.dtd">
<svg version="1.0" xmlns="http://www.w3.org/2000/svg"
 width="259.000000pt" height="194.000000pt" viewBox="0 0 259.000000 194.000000"
 preserveAspectRatio="xMidYMid meet">
<g transform="translate(0.000000,194.000000) scale(0.100000,-0.100000)"
fill="#FFFFFF" stroke="none">
<path d="M1455 1161 c-22 -10 -55 -34 -72 -54 -119 -136 -20 -347 162 -347 55
0 120 26 149 59 20 22 20 22 -5 47 l-25 25 -52 -27 c-40 -21 -59 -25 -88 -20
-99 19 -132 154 -53 220 39 33 108 35 158 5 l34 -21 25 25 c32 33 25 50 -37
82 -61 30 -137 33 -196 6z"/>
<path d="M571 980 c-45 -104 -84 -196 -87 -205 -5 -12 2 -15 36 -15 38 0 49 6
106 59 78 73 149 103 249 105 l70 1 3 -82 3 -83 44 0 45 0 0 65 c0 36 4 65 8
65 19 0 102 -61 128 -94 26 -32 34 -36 77 -36 l48 0 -17 32 c-27 52 -118 134
-183 165 l-60 28 0 53 -1 52 65 0 c60 0 66 -2 76 -24 16 -35 3 -75 -27 -87
l-26 -9 43 -30 c41 -27 45 -28 63 -12 43 39 57 115 32 176 -21 50 -71 66 -206
66 l-110 0 0 -80 0 -80 -69 0 -69 0 -33 80 -34 80 -46 0 -46 0 -82 -190z"/>
<path d="M1770 964 l0 -205 43 3 42 3 3 83 3 82 79 0 80 0 0 -85 0 -85 45 0
45 0 0 205 0 205 -45 0 -45 0 0 -85 0 -85 -80 0 -80 0 0 85 0 85 -45 0 -45 0
0 -206z"/>
</g>
</svg>
